# xmcd
#
# Track frame offsets:
# 150
# 19658
# 36490
# 54645
# 63528
# 80443
# 96587
# 113467
# 137474
# 151704
# 172517
# 192398
# 207449
# 234301
#
# Disc length: 3424 seconds
#
#
# Revision: 0
# Processed by: cddbd v1.5.1PL0 Copyright (c) Steve Scherf et al.
# Submitted via: FreeRIP 2.11 
#
DISCID=b00d5e0e
DTITLE=Various Artist - Sacred Steel Instrumentals
DYEAR=2004
DGENRE=Gospel
TTITLE0=Sonny Treadway-Jesus Will Fix It For You
TTITLE1=Aubrey Ghent-Just A Closer Walk With Thee
TTITLE2=Lonnie "Big Ben" Bennett-Will The Circle Be Unbroken
TTITLE3=Willie Eason-When The Saints Go Marching In
TTITLE4=Rayfield "Ray Ray" Holloman-I Need Thee
TTITLE5=Glenn Lee-Call Him By His Name
TTITLE6=Dante Harmon-Something's Got A Hold Of Me
TTITLE7=Aubrey Ghent-Walk With Me
TTITLE8=Lamar Nelson-If I Couldn't Say A Word
TTITLE9=The Campbell Brothers featuring Darick Campbell-End Of My Journey
TTITLE10=Glenn Lee-Joyful Sounds
TTITLE11=Sonny Treadway-Hallelujah Anyhow
TTITLE12=Robert Randolph-Without God
TTITLE13=The Campbell Brothers-Medley Of Offertory Tunes
EXTD=Arhoolie Records
EXTT0=
EXTT1=
EXTT2=
EXTT3=
EXTT4=
EXTT5=
EXTT6=
EXTT7=
EXTT8=
EXTT9=
EXTT10=
EXTT11=
EXTT12=
EXTT13=
PLAYORDER=
